<svg width="96" height="96" viewBox="0 0 96 96" fill="none" xmlns="http://www.w3.org/2000/svg" role="img" aria-labelledby="title desc">
  <title id="title">Gíria.AI</title>
  <desc id="desc">Balão de conversa verde com letra G e brilho, símbolo do tradutor de gírias.</desc>
  <rect width="96" height="96" rx="28" fill="url(#bg)"/>
  <path d="M24 42.5C24 31.73 33.18 23 44.5 23h7C62.82 23 72 31.73 72 42.5S62.82 62 51.5 62H46L32.8 72.4C31.49 73.43 29.56 72.5 29.56 70.83V58.2C26.1 54.72 24 49.93 24 42.5Z" fill="white" fill-opacity="0.96"/>
  <path d="M50.2 36.4c-1.54-1.45-3.5-2.18-5.88-2.18-4.93 0-8.32 3.53-8.32 8.78 0 5.23 3.42 8.78 8.46 8.78 2.04 0 3.77-.48 5.18-1.45v-3.72h-6.1v-5.18h12.18v11.5c-2.74 2.83-6.48 4.25-11.22 4.25-8.54 0-14.5-5.84-14.5-14.18 0-8.38 5.96-14.18 14.24-14.18 4.25 0 7.86 1.35 10.84 4.06l-4.88 3.92Z" fill="url(#letter)"/>
  <path d="M65.8 23.3l1.62 4.1 4.08 1.6-4.08 1.62-1.62 4.08-1.6-4.08-4.1-1.62 4.1-1.6 1.6-4.1Z" fill="#FDE68A"/>
  <path d="M23.8 25.5l1.02 2.58 2.58 1.02-2.58 1.02-1.02 2.58-1.02-2.58-2.58-1.02 2.58-1.02 1.02-2.58Z" fill="#A7F3D0"/>
  <defs>
    <linearGradient id="bg" x1="10" y1="8" x2="88" y2="90" gradientUnits="userSpaceOnUse">
      <stop stop-color="#10B981"/>
      <stop offset="0.55" stop-color="#0D9488"/>
      <stop offset="1" stop-color="#065F46"/>
    </linearGradient>
    <linearGradient id="letter" x1="30" y1="30" x2="58" y2="59" gradientUnits="userSpaceOnUse">
      <stop stop-color="#059669"/>
      <stop offset="1" stop-color="#0F766E"/>
    </linearGradient>
  </defs>
</svg>
